<svg xmlns="http://www.w3.org/2000/svg" viewBox="0 0 24 30" aria-hidden="true">
  <rect x="4" y="1" width="16" height="28" rx="1.2" fill="#2a2f36"/>
  <rect x="4.5" y="1.5" width="15" height="27" rx="0.8" fill="#3a414a"/>
  <rect x="10.2" y="4.2" width="3.6" height="6.2" rx="1.8" fill="#6d7680"/>
  <circle cx="12" cy="13.5" r="3.8" fill="#b8c0c8"/>
  <circle cx="12" cy="13.5" r="1.1" fill="#5c6775"/>
  <circle cx="12" cy="10.2" r="0.55" fill="#8a96a8"/>
  <circle cx="14.5" cy="11.6" r="0.45" fill="#8a96a8"/>
  <circle cx="14.5" cy="15.4" r="0.45" fill="#8a96a8"/>
  <circle cx="12" cy="16.8" r="0.55" fill="#8a96a8"/>
  <circle cx="9.5" cy="15.4" r="0.45" fill="#8a96a8"/>
  <circle cx="9.5" cy="11.6" r="0.45" fill="#8a96a8"/>
  <rect x="5" y="18.8" width="14" height="8.8" fill="#f4f4f4"/>
  <rect x="5" y="18.8" width="14" height="2.2" fill="#d62828"/>
  <rect x="5" y="21" width="14" height="0.35" fill="#c8c8c8"/>
  <rect x="5" y="22.1" width="14" height="0.35" fill="#c8c8c8"/>
  <rect x="5" y="23.2" width="14" height="0.35" fill="#c8c8c8"/>
  <rect x="5" y="26.4" width="14" height="1.2" fill="#aeb6bf"/>
</svg>
